{"accessors":[{"bufferView":2,"componentType":5126,"count":410,"max":[1.0621399879455566,1.0621399879455566,0.47137001156806946],"min":[-1.0621399879455566,-1.0621399879455566,-0.7441099882125854],"type":"VEC3"},{"bufferView":2,"byteOffset":4920,"componentType":5126,"count":410,"max":[1,1,1],"min":[-1,-1,-1],"type":"VEC3"},{"bufferView":3,"componentType":5126,"count":410,"max":[1,0.9999998211860657,0.9319921731948853,1],"min":[-0.9999885559082031,-0.9999990463256836,-0.9319920539855957,-1],"type":"VEC4"},{"bufferView":1,"componentType":5126,"count":410,"max":[1,0.9902200102806091],"min":[0,0.07143999636173248],"type":"VEC2"},{"bufferView":0,"componentType":5125,"count":1248,"max":[409],"min":[0],"type":"SCALAR"},{"bufferView":4,"componentType":5126,"count":35,"max":[1.399999976158142],"min":[0.03999999910593033],"type":"SCALAR"},{"bufferView":5,"componentType":5126,"count":35,"max":[0,0,0.7756800055503845],"min":[0,0,0.5049099922180176],"type":"VEC3"},{"bufferView":4,"byteOffset":140,"componentType":5126,"count":2,"max":[1.399999976158142],"min":[0.03999999910593033],"type":"SCALAR"},{"bufferView":6,"componentType":5126,"count":2,"max":[0,0,0,1],"min":[0,0,0,1],"type":"VEC4"},{"bufferView":4,"byteOffset":148,"componentType":5126,"count":2,"max":[1.399999976158142],"min":[0.03999999910593033],"type":"SCALAR"},{"bufferView":5,"byteOffset":420,"componentType":5126,"count":2,"max":[1,1,1],"min":[1,1,1],"type":"VEC3"}],"animations":[{"channels":[{"sampler":0,"target":{"node":3,"path":"translation"}},{"sampler":1,"target":{"node":3,"path":"rotation"}},{"sampler":2,"target":{"node":3,"path":"scale"}}],"name":"CubeAction","samplers":[{"input":5,"interpolation":"LINEAR","output":6},{"input":7,"interpolation":"LINEAR","output":8},{"input":9,"interpolation":"LINEAR","output":10}]}],"asset":{"extras":{"author":"yanix (https://sketchfab.com/yanix)","license":"CC-BY-4.0 (http://creativecommons.org/licenses/by/4.0/)","source":"https://sketchfab.com/3d-models/ufo-2d55eec1da344c9a9943abafbd07f0f9","title":"Ufo"},"generator":"Sketchfab-5.94.0","version":"2.0"},"bufferViews":[{"buffer":0,"byteLength":4992,"byteOffset":0,"name":"floatBufferViews","target":34963},{"buffer":0,"byteLength":3280,"byteOffset":4992,"byteStride":8,"name":"floatBufferViews","target":34962},{"buffer":0,"byteLength":9840,"byteOffset":8272,"byteStride":12,"name":"floatBufferViews","target":34962},{"buffer":0,"byteLength":6560,"byteOffset":18112,"byteStride":16,"name":"floatBufferViews","target":34962},{"buffer":0,"byteLength":156,"byteOffset":24672,"name":"floatBufferViews"},{"buffer":0,"byteLength":444,"byteOffset":24828,"byteStride":12,"name":"floatBufferViews"},{"buffer":0,"byteLength":32,"byteOffset":25272,"byteStride":16,"name":"floatBufferViews"}],"buffers":[{"byteLength":25304,"uri":"data:application/octet-stream;base64,"}],"images":[{"uri":"data:application/octet-stream;base64,"}],"materials":[{"alphaMode":"BLEND","doubleSided":true,"emissiveFactor":[0,0,0],"name":"Material-material","pbrMetallicRoughness":{"baseColorFactor":[1,1,1,1],"baseColorTexture":{"index":0,"texCoord":0},"metallicFactor":0,"roughnessFactor":0.6}}],"meshes":[{"name":"Cube_0","primitives":[{"attributes":{"NORMAL":1,"POSITION":0,"TANGENT":2,"TEXCOORD_0":3},"indices":4,"material":0,"mode":4}]}],"nodes":[{"children":[1],"name":"RootNode (gltf orientation matrix)","rotation":[-0.7071067811865475,0,0,0.7071067811865476]},{"children":[2],"name":"RootNode (model correction matrix)"},{"children":[3],"name":"Root"},{"children":[4],"name":"Cube","translation":[0,0,0.51323002576828]},{"mesh":0,"name":"Cube_0"}],"samplers":[{"magFilter":9729,"minFilter":9987,"wrapS":10497,"wrapT":10497}],"scene":0,"scenes":[{"name":"OSG_Scene","nodes":[0]}],"textures":[{"sampler":0,"source":0}]}